<?xml version="1.0" encoding="UTF-8" standalone="no"?>
<!DOCTYPE svg PUBLIC "-//W3C//DTD SVG 1.1//EN"
 "http://www.w3.org/Graphics/SVG/1.1/DTD/svg11.dtd">
<!-- Generated by graphviz version 2.43.0 (0)
 -->
<!-- Title: %3 Pages: 1 -->
<svg width="14552pt" height="203pt"
 viewBox="0.00 0.00 14551.95 202.69" xmlns="http://www.w3.org/2000/svg" xmlns:xlink="http://www.w3.org/1999/xlink">
<g id="graph0" class="graph" transform="scale(1 1) rotate(0) translate(4 198.69)">
<title>%3</title>
<polygon fill="white" stroke="transparent" points="-4,4 -4,-198.69 14547.95,-198.69 14547.95,4 -4,4"/>
<!-- N6980 -->
<g id="node1" class="node">
<title>N6980</title>
<ellipse fill="#8cd499" stroke="red" stroke-width="6" cx="8135.95" cy="-37.48" rx="248.8" ry="37.45"/>
<text text-anchor="middle" x="8135.95" y="-48.78" font-family="Times,serif" font-size="14.00">WorkGraph&lt;AQUAPLANET&#45;rolling&gt; (f1f6ba48)</text>
<text text-anchor="middle" x="8135.95" y="-33.78" font-family="Times,serif" font-size="14.00">State: finished</text>
<text text-anchor="middle" x="8135.95" y="-18.78" font-family="Times,serif" font-size="14.00">Exit Code: 0</text>
</g>
<!-- N6960 -->
<g id="node2" class="node">
<title>N6960</title>
<ellipse fill="#8cd499" stroke="black" stroke-width="0" cx="597.95" cy="-167.82" rx="135.11" ry="26.74"/>
<text text-anchor="middle" x="597.95" y="-171.62" font-family="Times,serif" font-size="14.00">RemoteData (9e12da00)</text>
<text text-anchor="middle" x="597.95" y="-156.62" font-family="Times,serif" font-size="14.00">@santis&#45;async&#45;ssh</text>
</g>
<!-- N6960&#45;&gt;N6980 -->
<g id="edge11" class="edge">
<title>N6960&#45;&gt;N6980</title>
<path fill="none" stroke="#000000" stroke-dasharray="5,2" d="M462.83,-166.28C297.98,-164.18 37.31,-155.66 6.95,-122.95 -2.13,-113.18 -2.45,-102.41 6.95,-92.95 42.47,-57.19 6494.62,-41.86 7877.11,-38.99"/>
<polygon fill="#000000" stroke="#000000" points="7877.17,-42.49 7887.17,-38.97 7877.16,-35.49 7877.17,-42.49"/>
<text text-anchor="middle" x="291.45" y="-111.75" font-family="Times,serif" font-size="14.00">INPUT_WORK</text>
<text text-anchor="middle" x="291.45" y="-96.75" font-family="Times,serif" font-size="14.00">tasks__launch_icon_date_2000_01_01_00_00_10__input_data_nodes__ecrad_data</text>
</g>
<!-- N6960&#45;&gt;N6980 -->
<g id="edge24" class="edge">
<title>N6960&#45;&gt;N6980</title>
<path fill="none" stroke="#000000" stroke-dasharray="5,2" d="M590.1,-140.74C587.05,-124.74 586.76,-105.07 598.95,-92.95 631.93,-60.17 6556.58,-42.64 7877.08,-39.13"/>
<polygon fill="#000000" stroke="#000000" points="7877.17,-42.63 7887.17,-39.11 7877.16,-35.63 7877.17,-42.63"/>
<text text-anchor="middle" x="883.45" y="-111.75" font-family="Times,serif" font-size="14.00">INPUT_WORK</text>
<text text-anchor="middle" x="883.45" y="-96.75" font-family="Times,serif" font-size="14.00">tasks__launch_icon_date_2000_01_01_00_00_20__input_data_nodes__ecrad_data</text>
</g>
<!-- N6960&#45;&gt;N6980 -->
<g id="edge28" class="edge">
<title>N6960&#45;&gt;N6980</title>
<path fill="none" stroke="#000000" stroke-dasharray="5,2" d="M732.76,-165.84C875.92,-163.14 1091.85,-153.86 1167.95,-122.95 1187.24,-115.12 1184.39,-100.12 1203.95,-92.95 1363.44,-34.5 6636.06,-36.78 7876.5,-38.13"/>
<polygon fill="#000000" stroke="#000000" points="7876.87,-41.63 7886.88,-38.14 7876.88,-34.63 7876.87,-41.63"/>
<text text-anchor="middle" x="1488.45" y="-111.75" font-family="Times,serif" font-size="14.00">INPUT_WORK</text>
<text text-anchor="middle" x="1488.45" y="-96.75" font-family="Times,serif" font-size="14.00">tasks__launch_icon_date_2000_01_01_00_00_00__input_data_nodes__ecrad_data</text>
</g>
<!-- N6961 -->
<g id="node3" class="node">
<title>N6961</title>
<ellipse fill="#8cd499" stroke="black" stroke-width="0" cx="2411.95" cy="-167.82" rx="132.46" ry="26.74"/>
<text text-anchor="middle" x="2411.95" y="-171.62" font-family="Times,serif" font-size="14.00">RemoteData (fd167a8a)</text>
<text text-anchor="middle" x="2411.95" y="-156.62" font-family="Times,serif" font-size="14.00">@santis&#45;async&#45;ssh</text>
</g>
<!-- N6961&#45;&gt;N6980 -->
<g id="edge2" class="edge">
<title>N6961&#45;&gt;N6980</title>
<path fill="none" stroke="#000000" stroke-dasharray="5,2" d="M2279.76,-167C2105.25,-165.82 1816.05,-158.45 1782.95,-122.95 1773.85,-113.2 1773.56,-102.42 1782.95,-92.95 1837.47,-37.96 6690.03,-37.53 7876.44,-38.25"/>
<polygon fill="#000000" stroke="#000000" points="7876.8,-41.75 7886.81,-38.26 7876.81,-34.75 7876.8,-41.75"/>
<text text-anchor="middle" x="2086.45" y="-111.75" font-family="Times,serif" font-size="14.00">INPUT_WORK</text>
<text text-anchor="middle" x="2086.45" y="-96.75" font-family="Times,serif" font-size="14.00">tasks__launch_icon_date_2000_01_01_00_00_20__input_data_nodes__cloud_opt_props</text>
</g>
<!-- N6961&#45;&gt;N6980 -->
<g id="edge10" class="edge">
<title>N6961&#45;&gt;N6980</title>
<path fill="none" stroke="#000000" stroke-dasharray="5,2" d="M2404.11,-140.75C2401.07,-124.75 2400.77,-105.08 2412.95,-92.95 2461.99,-44.1 6766.01,-39.02 7876.76,-38.52"/>
<polygon fill="#000000" stroke="#000000" points="7876.87,-42.02 7886.87,-38.52 7876.87,-35.02 7876.87,-42.02"/>
<text text-anchor="middle" x="2716.45" y="-111.75" font-family="Times,serif" font-size="14.00">INPUT_WORK</text>
<text text-anchor="middle" x="2716.45" y="-96.75" font-family="Times,serif" font-size="14.00">tasks__launch_icon_date_2000_01_01_00_00_00__input_data_nodes__cloud_opt_props</text>
</g>
<!-- N6961&#45;&gt;N6980 -->
<g id="edge16" class="edge">
<title>N6961&#45;&gt;N6980</title>
<path fill="none" stroke="#000000" stroke-dasharray="5,2" d="M2544.12,-166.68C2696.49,-164.88 2936.64,-156.55 3019.95,-122.95 3039.26,-115.16 3036.4,-100.15 3055.95,-92.95 3170.02,-50.96 6857.06,-40.89 7876.84,-38.91"/>
<polygon fill="#000000" stroke="#000000" points="7876.88,-42.41 7886.87,-38.89 7876.87,-35.41 7876.88,-42.41"/>
<text text-anchor="middle" x="3359.45" y="-111.75" font-family="Times,serif" font-size="14.00">INPUT_WORK</text>
<text text-anchor="middle" x="3359.45" y="-96.75" font-family="Times,serif" font-size="14.00">tasks__launch_icon_date_2000_01_01_00_00_10__input_data_nodes__cloud_opt_props</text>
</g>
<!-- N6962 -->
<g id="node4" class="node">
<title>N6962</title>
<ellipse fill="#8cd499" stroke="black" stroke-width="0" cx="4250.95" cy="-167.82" rx="132.46" ry="26.74"/>
<text text-anchor="middle" x="4250.95" y="-171.62" font-family="Times,serif" font-size="14.00">RemoteData (2cf875b7)</text>
<text text-anchor="middle" x="4250.95" y="-156.62" font-family="Times,serif" font-size="14.00">@santis&#45;async&#45;ssh</text>
</g>
<!-- N6962&#45;&gt;N6980 -->
<g id="edge20" class="edge">
<title>N6962&#45;&gt;N6980</title>
<path fill="none" stroke="#000000" stroke-dasharray="5,2" d="M4118.8,-166.07C3957.56,-163.74 3702.62,-154.97 3672.95,-122.95 3663.88,-113.17 3663.58,-102.44 3672.95,-92.95 3710.1,-55.34 6930.64,-42.26 7877.14,-39.22"/>
<polygon fill="#000000" stroke="#000000" points="7877.16,-42.72 7887.14,-39.19 7877.13,-35.72 7877.16,-42.72"/>
<text text-anchor="middle" x="3950.95" y="-111.75" font-family="Times,serif" font-size="14.00">INPUT_WORK</text>
<text text-anchor="middle" x="3950.95" y="-96.75" font-family="Times,serif" font-size="14.00">tasks__launch_icon_date_2000_01_01_00_00_00__input_data_nodes__rrtmg_lw</text>
</g>
<!-- N6962&#45;&gt;N6980 -->
<g id="edge21" class="edge">
<title>N6962&#45;&gt;N6980</title>
<path fill="none" stroke="#000000" stroke-dasharray="5,2" d="M4243.13,-140.77C4240.09,-124.78 4239.8,-105.11 4251.95,-92.95 4284.05,-60.84 7013.57,-44.19 7877.1,-39.73"/>
<polygon fill="#000000" stroke="#000000" points="7877.19,-43.23 7887.17,-39.67 7877.15,-36.23 7877.19,-43.23"/>
<text text-anchor="middle" x="4529.95" y="-111.75" font-family="Times,serif" font-size="14.00">INPUT_WORK</text>
<text text-anchor="middle" x="4529.95" y="-96.75" font-family="Times,serif" font-size="14.00">tasks__launch_icon_date_2000_01_01_00_00_10__input_data_nodes__rrtmg_lw</text>
</g>
<!-- N6962&#45;&gt;N6980 -->
<g id="edge22" class="edge">
<title>N6962&#45;&gt;N6980</title>
<path fill="none" stroke="#000000" stroke-dasharray="5,2" d="M4383,-165.59C4522.91,-162.68 4733.66,-153.2 4807.95,-122.95 4827.24,-115.1 4824.42,-100.21 4843.95,-92.95 4985.09,-40.53 7124.55,-37.5 7876.78,-38.07"/>
<polygon fill="#000000" stroke="#000000" points="7876.93,-41.57 7886.93,-38.07 7876.93,-34.57 7876.93,-41.57"/>
<text text-anchor="middle" x="5121.95" y="-111.75" font-family="Times,serif" font-size="14.00">INPUT_WORK</text>
<text text-anchor="middle" x="5121.95" y="-96.75" font-family="Times,serif" font-size="14.00">tasks__launch_icon_date_2000_01_01_00_00_20__input_data_nodes__rrtmg_lw</text>
</g>
<!-- N6963 -->
<g id="node5" class="node">
<title>N6963</title>
<ellipse fill="#8cd499" stroke="black" stroke-width="0" cx="6054.95" cy="-167.82" rx="132.87" ry="26.74"/>
<text text-anchor="middle" x="6054.95" y="-171.62" font-family="Times,serif" font-size="14.00">RemoteData (9f9173a1)</text>
<text text-anchor="middle" x="6054.95" y="-156.62" font-family="Times,serif" font-size="14.00">@santis&#45;async&#45;ssh</text>
</g>
<!-- N6963&#45;&gt;N6980 -->
<g id="edge3" class="edge">
<title>N6963&#45;&gt;N6980</title>
<path fill="none" stroke="#000000" stroke-dasharray="5,2" d="M5921.67,-167.25C5742.98,-166.41 5444.07,-159.47 5409.95,-122.95 5400.84,-113.21 5400.61,-102.48 5409.95,-92.95 5452.76,-49.27 7204.39,-40.61 7876.81,-38.9"/>
<polygon fill="#000000" stroke="#000000" points="7877.13,-42.4 7887.12,-38.87 7877.11,-35.4 7877.13,-42.4"/>
<text text-anchor="middle" x="5721.45" y="-111.75" font-family="Times,serif" font-size="14.00">INPUT_WORK</text>
<text text-anchor="middle" x="5721.45" y="-96.75" font-family="Times,serif" font-size="14.00">tasks__launch_icon_date_2000_01_01_00_00_10__input_data_nodes__dynamics_grid_file</text>
</g>
<!-- N6963&#45;&gt;N6980 -->
<g id="edge14" class="edge">
<title>N6963&#45;&gt;N6980</title>
<path fill="none" stroke="#000000" stroke-dasharray="5,2" d="M6047.18,-140.82C6044.16,-124.85 6043.87,-105.18 6055.95,-92.95 6087.52,-60.97 7327.6,-45.79 7877.7,-40.62"/>
<polygon fill="#000000" stroke="#000000" points="7877.78,-44.12 7887.75,-40.52 7877.72,-37.12 7877.78,-44.12"/>
<text text-anchor="middle" x="6367.45" y="-111.75" font-family="Times,serif" font-size="14.00">INPUT_WORK</text>
<text text-anchor="middle" x="6367.45" y="-96.75" font-family="Times,serif" font-size="14.00">tasks__launch_icon_date_2000_01_01_00_00_20__input_data_nodes__dynamics_grid_file</text>
</g>
<!-- N6963&#45;&gt;N6980 -->
<g id="edge18" class="edge">
<title>N6963&#45;&gt;N6980</title>
<path fill="none" stroke="#000000" stroke-dasharray="5,2" d="M6187.96,-166.42C6343.98,-164.38 6592.33,-155.85 6678.95,-122.95 6699.39,-115.19 6697.38,-100.39 6717.95,-92.95 6823.54,-54.76 7497.96,-43.34 7877.42,-39.93"/>
<polygon fill="#000000" stroke="#000000" points="7877.48,-43.43 7887.45,-39.84 7877.42,-36.43 7877.48,-43.43"/>
<text text-anchor="middle" x="7029.45" y="-111.75" font-family="Times,serif" font-size="14.00">INPUT_WORK</text>
<text text-anchor="middle" x="7029.45" y="-96.75" font-family="Times,serif" font-size="14.00">tasks__launch_icon_date_2000_01_01_00_00_00__input_data_nodes__dynamics_grid_file</text>
</g>
<!-- N6964 -->
<g id="node6" class="node">
<title>N6964</title>
<ellipse fill="#8cd499" stroke="black" stroke-width="0" cx="7346.95" cy="-167.82" rx="215.84" ry="26.74"/>
<text text-anchor="middle" x="7346.95" y="-171.62" font-family="Times,serif" font-size="14.00">Str (c99c41f3)</text>
<text text-anchor="middle" x="7346.95" y="-156.62" font-family="Times,serif" font-size="14.00">launch_icon_date_2000_01_01_00_00_00</text>
</g>
<!-- N6964&#45;&gt;N6980 -->
<g id="edge6" class="edge">
<title>N6964&#45;&gt;N6980</title>
<path fill="none" stroke="#000000" stroke-dasharray="5,2" d="M7343.38,-140.88C7342.74,-124.73 7345.1,-104.84 7357.95,-92.95 7395.95,-57.8 7666.25,-45.2 7877.71,-40.76"/>
<polygon fill="#000000" stroke="#000000" points="7877.8,-44.26 7887.73,-40.56 7877.66,-37.26 7877.8,-44.26"/>
<text text-anchor="middle" x="7617.45" y="-111.75" font-family="Times,serif" font-size="14.00">INPUT_WORK</text>
<text text-anchor="middle" x="7617.45" y="-96.75" font-family="Times,serif" font-size="14.00">tasks__get_job_data_icon_date_2000_01_01_00_00_00__workgraph_name</text>
</g>
<!-- N6965 -->
<g id="node7" class="node">
<title>N6965</title>
<ellipse fill="#8cd499" stroke="black" stroke-width="0" cx="7888.95" cy="-167.82" rx="177.47" ry="26.74"/>
<text text-anchor="middle" x="7888.95" y="-171.62" font-family="Times,serif" font-size="14.00">Str (0d3e43f4)</text>
<text text-anchor="middle" x="7888.95" y="-156.62" font-family="Times,serif" font-size="14.00">icon_date_2000_01_01_00_00_00</text>
</g>
<!-- N6965&#45;&gt;N6980 -->
<g id="edge1" class="edge">
<title>N6965&#45;&gt;N6980</title>
<path fill="none" stroke="#000000" stroke-dasharray="5,2" d="M7881.9,-140.86C7879.33,-125.31 7879.26,-106.08 7889.95,-92.95 7898.91,-81.94 7919.17,-73 7944.4,-65.8"/>
<polygon fill="#000000" stroke="#000000" points="7945.56,-69.12 7954.3,-63.13 7943.74,-62.36 7945.56,-69.12"/>
<text text-anchor="middle" x="8125.95" y="-111.75" font-family="Times,serif" font-size="14.00">INPUT_WORK</text>
<text text-anchor="middle" x="8125.95" y="-96.75" font-family="Times,serif" font-size="14.00">tasks__get_job_data_icon_date_2000_01_01_00_00_00__task_name</text>
</g>
<!-- N6966 -->
<g id="node8" class="node">
<title>N6966</title>
<ellipse fill="#8cd499" stroke="black" stroke-width="0" cx="8383.95" cy="-167.82" rx="86.03" ry="26.74"/>
<text text-anchor="middle" x="8383.95" y="-171.62" font-family="Times,serif" font-size="14.00">Int (355a707c)</text>
<text text-anchor="middle" x="8383.95" y="-156.62" font-family="Times,serif" font-size="14.00">value: 5</text>
</g>
<!-- N6966&#45;&gt;N6980 -->
<g id="edge27" class="edge">
<title>N6966&#45;&gt;N6980</title>
<path fill="none" stroke="#000000" stroke-dasharray="5,2" d="M8382.58,-140.89C8380.37,-124.95 8374.96,-105.29 8361.95,-92.95 8352.22,-83.73 8332.32,-75.62 8308.19,-68.68"/>
<polygon fill="#000000" stroke="#000000" points="8308.94,-65.25 8298.37,-65.97 8307.08,-72 8308.94,-65.25"/>
<text text-anchor="middle" x="8604.45" y="-111.75" font-family="Times,serif" font-size="14.00">INPUT_WORK</text>
<text text-anchor="middle" x="8604.45" y="-96.75" font-family="Times,serif" font-size="14.00">tasks__get_job_data_icon_date_2000_01_01_00_00_00__interval</text>
</g>
<!-- N6967 -->
<g id="node9" class="node">
<title>N6967</title>
<ellipse fill="#8cd499" stroke="black" stroke-width="0" cx="8857.95" cy="-167.82" rx="86.95" ry="26.74"/>
<text text-anchor="middle" x="8857.95" y="-171.62" font-family="Times,serif" font-size="14.00">Int (9499be9d)</text>
<text text-anchor="middle" x="8857.95" y="-156.62" font-family="Times,serif" font-size="14.00">value: 180</text>
</g>
<!-- N6967&#45;&gt;N6980 -->
<g id="edge8" class="edge">
<title>N6967&#45;&gt;N6980</title>
<path fill="none" stroke="#000000" stroke-dasharray="5,2" d="M8856.57,-140.83C8854.22,-124.44 8848.35,-104.3 8833.95,-92.95 8798.99,-65.42 8575.66,-51.56 8390.88,-44.74"/>
<polygon fill="#000000" stroke="#000000" points="8390.84,-41.24 8380.72,-44.37 8390.59,-48.23 8390.84,-41.24"/>
<text text-anchor="middle" x="9078.45" y="-111.75" font-family="Times,serif" font-size="14.00">INPUT_WORK</text>
<text text-anchor="middle" x="9078.45" y="-96.75" font-family="Times,serif" font-size="14.00">tasks__get_job_data_icon_date_2000_01_01_00_00_00__timeout</text>
</g>
<!-- N6968 -->
<g id="node10" class="node">
<title>N6968</title>
<ellipse fill="#8cd499" stroke="black" stroke-width="0" cx="9331.95" cy="-167.82" rx="215.84" ry="26.74"/>
<text text-anchor="middle" x="9331.95" y="-171.62" font-family="Times,serif" font-size="14.00">Str (c827ed54)</text>
<text text-anchor="middle" x="9331.95" y="-156.62" font-family="Times,serif" font-size="14.00">launch_icon_date_2000_01_01_00_00_10</text>
</g>
<!-- N6968&#45;&gt;N6980 -->
<g id="edge19" class="edge">
<title>N6968&#45;&gt;N6980</title>
<path fill="none" stroke="#000000" stroke-dasharray="5,2" d="M9330.68,-140.68C9328.39,-124.23 9322.53,-104.07 9307.95,-92.95 9272.15,-65.66 8726.84,-50.08 8392.82,-43.06"/>
<polygon fill="#000000" stroke="#000000" points="8392.58,-39.55 8382.51,-42.84 8392.44,-46.55 8392.58,-39.55"/>
<text text-anchor="middle" x="9585.45" y="-111.75" font-family="Times,serif" font-size="14.00">INPUT_WORK</text>
<text text-anchor="middle" x="9585.45" y="-96.75" font-family="Times,serif" font-size="14.00">tasks__get_job_data_icon_date_2000_01_01_00_00_10__workgraph_name</text>
</g>
<!-- N6969 -->
<g id="node11" class="node">
<title>N6969</title>
<ellipse fill="#8cd499" stroke="black" stroke-width="0" cx="9873.95" cy="-167.82" rx="177.47" ry="26.74"/>
<text text-anchor="middle" x="9873.95" y="-171.62" font-family="Times,serif" font-size="14.00">Str (799f336b)</text>
<text text-anchor="middle" x="9873.95" y="-156.62" font-family="Times,serif" font-size="14.00">icon_date_2000_01_01_00_00_10</text>
</g>
<!-- N6969&#45;&gt;N6980 -->
<g id="edge13" class="edge">
<title>N6969&#45;&gt;N6980</title>
<path fill="none" stroke="#000000" stroke-dasharray="5,2" d="M9872.42,-140.94C9869.96,-124.38 9863.84,-104 9848.95,-92.95 9791.67,-50.48 8859.52,-41.07 8394.95,-39.02"/>
<polygon fill="#000000" stroke="#000000" points="8394.76,-35.52 8384.74,-38.98 8394.73,-42.52 8394.76,-35.52"/>
<text text-anchor="middle" x="10103.95" y="-111.75" font-family="Times,serif" font-size="14.00">INPUT_WORK</text>
<text text-anchor="middle" x="10103.95" y="-96.75" font-family="Times,serif" font-size="14.00">tasks__get_job_data_icon_date_2000_01_01_00_00_10__task_name</text>
</g>
<!-- N6970 -->
<g id="node12" class="node">
<title>N6970</title>
<ellipse fill="#8cd499" stroke="black" stroke-width="0" cx="10368.95" cy="-167.82" rx="86.03" ry="26.74"/>
<text text-anchor="middle" x="10368.95" y="-171.62" font-family="Times,serif" font-size="14.00">Int (061195c3)</text>
<text text-anchor="middle" x="10368.95" y="-156.62" font-family="Times,serif" font-size="14.00">value: 5</text>
</g>
<!-- N6970&#45;&gt;N6980 -->
<g id="edge9" class="edge">
<title>N6970&#45;&gt;N6980</title>
<path fill="none" stroke="#000000" stroke-dasharray="5,2" d="M10367.45,-140.91C10364.99,-124.33 10358.88,-103.95 10343.95,-92.95 10305.19,-64.42 8968.56,-47.13 8394.11,-41"/>
<polygon fill="#000000" stroke="#000000" points="8394.06,-37.5 8384.03,-40.89 8393.99,-44.5 8394.06,-37.5"/>
<text text-anchor="middle" x="10588.45" y="-111.75" font-family="Times,serif" font-size="14.00">INPUT_WORK</text>
<text text-anchor="middle" x="10588.45" y="-96.75" font-family="Times,serif" font-size="14.00">tasks__get_job_data_icon_date_2000_01_01_00_00_10__interval</text>
</g>
<!-- N6971 -->
<g id="node13" class="node">
<title>N6971</title>
<ellipse fill="#8cd499" stroke="black" stroke-width="0" cx="10842.95" cy="-167.82" rx="79.81" ry="26.74"/>
<text text-anchor="middle" x="10842.95" y="-171.62" font-family="Times,serif" font-size="14.00">Int (fecfa8a8)</text>
<text text-anchor="middle" x="10842.95" y="-156.62" font-family="Times,serif" font-size="14.00">value: 180</text>
</g>
<!-- N6971&#45;&gt;N6980 -->
<g id="edge12" class="edge">
<title>N6971&#45;&gt;N6980</title>
<path fill="none" stroke="#000000" stroke-dasharray="5,2" d="M10841.46,-140.88C10839.02,-124.3 10832.91,-103.92 10817.95,-92.95 10769.51,-57.46 9057.74,-43.8 8394.66,-39.83"/>
<polygon fill="#000000" stroke="#000000" points="8394.52,-36.33 8384.5,-39.77 8394.48,-43.33 8394.52,-36.33"/>
<text text-anchor="middle" x="11062.45" y="-111.75" font-family="Times,serif" font-size="14.00">INPUT_WORK</text>
<text text-anchor="middle" x="11062.45" y="-96.75" font-family="Times,serif" font-size="14.00">tasks__get_job_data_icon_date_2000_01_01_00_00_10__timeout</text>
</g>
<!-- N6972 -->
<g id="node14" class="node">
<title>N6972</title>
<ellipse fill="#8cd499" stroke="black" stroke-width="0" cx="11316.95" cy="-167.82" rx="215.84" ry="26.74"/>
<text text-anchor="middle" x="11316.95" y="-171.62" font-family="Times,serif" font-size="14.00">Str (5fdc25e2)</text>
<text text-anchor="middle" x="11316.95" y="-156.62" font-family="Times,serif" font-size="14.00">launch_icon_date_2000_01_01_00_00_20</text>
</g>
<!-- N6972&#45;&gt;N6980 -->
<g id="edge26" class="edge">
<title>N6972&#45;&gt;N6980</title>
<path fill="none" stroke="#000000" stroke-dasharray="5,2" d="M11315.47,-140.87C11313.03,-124.28 11306.92,-103.89 11291.95,-92.95 11233.75,-50.44 9139,-41.01 8394.92,-39"/>
<polygon fill="#000000" stroke="#000000" points="8394.89,-35.5 8384.88,-38.97 8394.87,-42.5 8394.89,-35.5"/>
<text text-anchor="middle" x="11570.45" y="-111.75" font-family="Times,serif" font-size="14.00">INPUT_WORK</text>
<text text-anchor="middle" x="11570.45" y="-96.75" font-family="Times,serif" font-size="14.00">tasks__get_job_data_icon_date_2000_01_01_00_00_20__workgraph_name</text>
</g>
<!-- N6973 -->
<g id="node15" class="node">
<title>N6973</title>
<ellipse fill="#8cd499" stroke="black" stroke-width="0" cx="11858.95" cy="-167.82" rx="177.47" ry="26.74"/>
<text text-anchor="middle" x="11858.95" y="-171.62" font-family="Times,serif" font-size="14.00">Str (3764d4b2)</text>
<text text-anchor="middle" x="11858.95" y="-156.62" font-family="Times,serif" font-size="14.00">icon_date_2000_01_01_00_00_20</text>
</g>
<!-- N6973&#45;&gt;N6980 -->
<g id="edge23" class="edge">
<title>N6973&#45;&gt;N6980</title>
<path fill="none" stroke="#000000" stroke-dasharray="5,2" d="M11857.48,-140.86C11855.04,-124.26 11848.94,-103.88 11833.95,-92.95 11764.51,-42.37 9225.22,-38.29 8395.4,-38.31"/>
<polygon fill="#000000" stroke="#000000" points="8395.12,-34.81 8385.12,-38.31 8395.12,-41.81 8395.12,-34.81"/>
<text text-anchor="middle" x="12088.95" y="-111.75" font-family="Times,serif" font-size="14.00">INPUT_WORK</text>
<text text-anchor="middle" x="12088.95" y="-96.75" font-family="Times,serif" font-size="14.00">tasks__get_job_data_icon_date_2000_01_01_00_00_20__task_name</text>
</g>
<!-- N6974 -->
<g id="node16" class="node">
<title>N6974</title>
<ellipse fill="#8cd499" stroke="black" stroke-width="0" cx="12353.95" cy="-167.82" rx="85.62" ry="26.74"/>
<text text-anchor="middle" x="12353.95" y="-171.62" font-family="Times,serif" font-size="14.00">Int (a9bbe0c6)</text>
<text text-anchor="middle" x="12353.95" y="-156.62" font-family="Times,serif" font-size="14.00">value: 5</text>
</g>
<!-- N6974&#45;&gt;N6980 -->
<g id="edge25" class="edge">
<title>N6974&#45;&gt;N6980</title>
<path fill="none" stroke="#000000" stroke-dasharray="5,2" d="M12352.49,-140.85C12350.05,-124.25 12343.95,-103.86 12328.95,-92.95 12289.01,-63.91 9302.63,-44.96 8394.82,-39.86"/>
<polygon fill="#000000" stroke="#000000" points="8394.59,-36.36 8384.57,-39.8 8394.55,-43.36 8394.59,-36.36"/>
<text text-anchor="middle" x="12573.45" y="-111.75" font-family="Times,serif" font-size="14.00">INPUT_WORK</text>
<text text-anchor="middle" x="12573.45" y="-96.75" font-family="Times,serif" font-size="14.00">tasks__get_job_data_icon_date_2000_01_01_00_00_20__interval</text>
</g>
<!-- N6975 -->
<g id="node17" class="node">
<title>N6975</title>
<ellipse fill="#8cd499" stroke="black" stroke-width="0" cx="12827.95" cy="-167.82" rx="86.03" ry="26.74"/>
<text text-anchor="middle" x="12827.95" y="-171.62" font-family="Times,serif" font-size="14.00">Int (ad2c9666)</text>
<text text-anchor="middle" x="12827.95" y="-156.62" font-family="Times,serif" font-size="14.00">value: 180</text>
</g>
<!-- N6975&#45;&gt;N6980 -->
<g id="edge5" class="edge">
<title>N6975&#45;&gt;N6980</title>
<path fill="none" stroke="#000000" stroke-dasharray="5,2" d="M12826.49,-140.84C12824.06,-124.24 12817.96,-103.85 12802.95,-92.95 12758.04,-60.34 9368.66,-43.64 8394.89,-39.51"/>
<polygon fill="#000000" stroke="#000000" points="8394.61,-36.01 8384.6,-39.47 8394.58,-43.01 8394.61,-36.01"/>
<text text-anchor="middle" x="13047.45" y="-111.75" font-family="Times,serif" font-size="14.00">INPUT_WORK</text>
<text text-anchor="middle" x="13047.45" y="-96.75" font-family="Times,serif" font-size="14.00">tasks__get_job_data_icon_date_2000_01_01_00_00_20__timeout</text>
</g>
<!-- N6976 -->
<g id="node18" class="node">
<title>N6976</title>
<ellipse fill="#8cd499" stroke="black" stroke-width="0" cx="13301.95" cy="-167.82" rx="89.19" ry="26.74"/>
<text text-anchor="middle" x="13301.95" y="-171.62" font-family="Times,serif" font-size="14.00">Str (87254dc1)</text>
<text text-anchor="middle" x="13301.95" y="-156.62" font-family="Times,serif" font-size="14.00">launch_cleanup</text>
</g>
<!-- N6976&#45;&gt;N6980 -->
<g id="edge7" class="edge">
<title>N6976&#45;&gt;N6980</title>
<path fill="none" stroke="#000000" stroke-dasharray="5,2" d="M13300.5,-140.84C13298.06,-124.23 13291.96,-103.84 13276.95,-92.95 13227.04,-56.76 9431.29,-42.46 8394.89,-39.22"/>
<polygon fill="#000000" stroke="#000000" points="8394.71,-35.72 8384.7,-39.19 8394.69,-42.72 8394.71,-35.72"/>
<text text-anchor="middle" x="13465.95" y="-111.75" font-family="Times,serif" font-size="14.00">INPUT_WORK</text>
<text text-anchor="middle" x="13465.95" y="-96.75" font-family="Times,serif" font-size="14.00">tasks__get_job_data_cleanup__workgraph_name</text>
</g>
<!-- N6977 -->
<g id="node19" class="node">
<title>N6977</title>
<ellipse fill="#8cd499" stroke="black" stroke-width="0" cx="13664.95" cy="-167.82" rx="85.62" ry="26.74"/>
<text text-anchor="middle" x="13664.95" y="-171.62" font-family="Times,serif" font-size="14.00">Str (e6ef330d)</text>
<text text-anchor="middle" x="13664.95" y="-156.62" font-family="Times,serif" font-size="14.00">cleanup</text>
</g>
<!-- N6977&#45;&gt;N6980 -->
<g id="edge4" class="edge">
<title>N6977&#45;&gt;N6980</title>
<path fill="none" stroke="#000000" stroke-dasharray="5,2" d="M13663.5,-140.83C13661.07,-124.23 13654.96,-103.84 13639.95,-92.95 13586.21,-54.01 9478.11,-41.63 8395.2,-39.04"/>
<polygon fill="#000000" stroke="#000000" points="8394.96,-35.54 8384.95,-39.01 8394.94,-42.54 8394.96,-35.54"/>
<text text-anchor="middle" x="13805.45" y="-111.75" font-family="Times,serif" font-size="14.00">INPUT_WORK</text>
<text text-anchor="middle" x="13805.45" y="-96.75" font-family="Times,serif" font-size="14.00">tasks__get_job_data_cleanup__task_name</text>
</g>
<!-- N6978 -->
<g id="node20" class="node">
<title>N6978</title>
<ellipse fill="#8cd499" stroke="black" stroke-width="0" cx="13980.95" cy="-167.82" rx="86.03" ry="26.74"/>
<text text-anchor="middle" x="13980.95" y="-171.62" font-family="Times,serif" font-size="14.00">Int (c0b5ba0b)</text>
<text text-anchor="middle" x="13980.95" y="-156.62" font-family="Times,serif" font-size="14.00">value: 5</text>
</g>
<!-- N6978&#45;&gt;N6980 -->
<g id="edge15" class="edge">
<title>N6978&#45;&gt;N6980</title>
<path fill="none" stroke="#000000" stroke-dasharray="5,2" d="M13979.5,-140.83C13977.07,-124.23 13970.97,-103.83 13955.95,-92.95 13898.86,-51.6 9516.25,-40.94 8394.93,-38.89"/>
<polygon fill="#000000" stroke="#000000" points="8394.73,-35.39 8384.72,-38.87 8394.72,-42.39 8394.73,-35.39"/>
<text text-anchor="middle" x="14111.45" y="-111.75" font-family="Times,serif" font-size="14.00">INPUT_WORK</text>
<text text-anchor="middle" x="14111.45" y="-96.75" font-family="Times,serif" font-size="14.00">tasks__get_job_data_cleanup__interval</text>
</g>
<!-- N6979 -->
<g id="node21" class="node">
<title>N6979</title>
<ellipse fill="#8cd499" stroke="black" stroke-width="0" cx="14276.95" cy="-167.82" rx="84.29" ry="26.74"/>
<text text-anchor="middle" x="14276.95" y="-171.62" font-family="Times,serif" font-size="14.00">Int (39717fde)</text>
<text text-anchor="middle" x="14276.95" y="-156.62" font-family="Times,serif" font-size="14.00">value: 180</text>
</g>
<!-- N6979&#45;&gt;N6980 -->
<g id="edge17" class="edge">
<title>N6979&#45;&gt;N6980</title>
<path fill="none" stroke="#000000" stroke-dasharray="5,2" d="M14275.5,-140.83C14273.07,-124.22 14266.97,-103.83 14251.95,-92.95 14191.72,-49.35 9551.83,-40.34 8394.98,-38.77"/>
<polygon fill="#000000" stroke="#000000" points="8394.88,-35.27 8384.88,-38.76 8394.87,-42.27 8394.88,-35.27"/>
<text text-anchor="middle" x="14407.45" y="-111.75" font-family="Times,serif" font-size="14.00">INPUT_WORK</text>
<text text-anchor="middle" x="14407.45" y="-96.75" font-family="Times,serif" font-size="14.00">tasks__get_job_data_cleanup__timeout</text>
</g>
</g>
</svg>
